# xmcd CD database file
#
# Track frame offsets:
#	150
#	25650
#	38288
#	73283
#	89971
#	116358
#	152693
#	171355
#	182555
#	196355
#	206043
#	219531
#	231431
#	246418
#	264955
#	302270
#
# Disc length: 4437 seconds
#
# Revision: 5
# Processed by: cddbd v1.5.2PL0 Copyright (c) Steve Scherf et al.
# Submitted via: CDex 1.70beta2
#
DISCID=de115310
DTITLE=Johann Strauss - Romantic Classic
DYEAR=1999
DGENRE=Classical
TTITLE0=Voice of Spring Op.335
TTITLE1=March from Operetta "Gypsy Baron" Op.418
TTITLE2=Treasure Waltz Operreta "Gypsy Baron" Op.418
TTITLE3=Fata Morgana Op.330
TTITLE4=Wine, Women and Song, Op.333
TTITLE5=On The Beautiful Blue Danube, Op.314
TTITLE6=Woman Heart Op.166
TTITLE7=Pizzicato - Polka Op.45
TTITLE8=Thunder and Lighting Op.146
TTITLE9=Hunting Polka Op.229
TTITLE10=Houday of Fire Op.269
TTITLE11=Polka Trik-Trak Op.270
TTITLE12=Radetzky March Op.228
TTITLE13=In Krapfenwald's Op.336
TTITLE14=Vienna Bonbuns Op.307
TTITLE15=(Г­Г Г§ГўГ Г­ГЁГҐ ГЇГ°Г®ГЇГіГ№ГҐГ­Г®)
EXTD=YEAR: 1999
EXTT0=
EXTT1=
EXTT2=
EXTT3=
EXTT4=
EXTT5=
EXTT6=
EXTT7=
EXTT8=
EXTT9=
EXTT10=
EXTT11=
EXTT12=
EXTT13=
EXTT14=
EXTT15=
PLAYORDER=
